<?xml version="1.0" encoding="utf-8"?>
<!-- Generator: Adobe Illustrator 22.1.0, SVG Export Plug-In . SVG Version: 6.00 Build 0)  -->
<svg version="1.1" id="레이어_1" xmlns="http://www.w3.org/2000/svg" xmlns:xlink="http://www.w3.org/1999/xlink" x="0px"
	 y="0px" viewBox="0 0 35 30" style="enable-background:new 0 0 35 30;" xml:space="preserve">
<style type="text/css">
	.st0{fill-rule:evenodd;clip-rule:evenodd;fill:#EFEFEF;}
</style>
<path class="st0" d="M33.7,10.9c-0.2,0-0.5-0.3-0.5-0.5c0-0.9-0.7-1.3-0.9-2.2C32.1,8.4,32,8.5,32,8.6c-0.1,0.5-0.4,0.9-0.8,0.8
	c-0.4-0.1-0.7-0.5-0.6-1.1c0-0.1,0.1-0.3-0.1-0.3c-0.3,0-0.5-0.3-0.7-0.5c-0.5-0.5-1.1-0.1-1.6-0.3C28,7.1,28,7.3,28,7.5
	c0,0.5,0.3,0.9,0,1.3c-0.2,0.3-0.1,0.4,0.1,0.6c0.5,0.4,0.5,1.2,0,1.4c-0.5,0.3-0.5,0.7-0.4,1.1c0,0.1,0.1,0.2,0.1,0.3
	c0,0.2-0.1,0.4-0.3,0.5c-0.2,0.1-0.3-0.1-0.4-0.2c-0.4-0.3-0.5-0.8-0.5-1.2c0-0.4-0.2-0.5-0.4-0.5c-0.6,0-1.2-0.3-1.6-0.7
	c-0.4-0.4-1.3,0.1-1.4-0.9c0,0-0.1-0.1-0.2-0.1c-0.4,0-0.3-0.3-0.3-0.5c0.1-1.2,1-1.7,1.7-2.3C24.7,6.1,25,6,25.2,5.6
	c0.1-0.2,0.1-1,0.8-0.5c0.1,0.1,0.6-0.2,0.9-0.5c0.3-0.3-0.1-0.4-0.2-0.6c0-0.1,0-0.1-0.1-0.2c0.3-0.1,0.5-0.2,0.1-0.5
	c-0.2-0.2-0.5-0.3-0.7-0.3c-0.2,0-0.4,0-0.3,0.2c0.1,0.5-0.3,0.6-0.4,1c0,0.2-0.1,0.3-0.3,0.3c-0.1-0.1-0.4-0.3-0.3-0.5
	c0.2-0.3,0.1-0.5-0.2-0.6c-0.4-0.2-0.3,0.3-0.5,0.4c-0.1-0.3,0-0.9-0.6-0.8c-0.1,0,0-0.1,0-0.2c0.2-0.5-0.3-0.7-0.4-1
	c0-0.1-0.4-0.1-0.2-0.3c0.1-0.2,0.1-0.6,0.5-0.5C23.8,1,24,0.5,24.1,0.2c0-0.3-0.3-0.1-0.5-0.2c-0.1,0-0.2-0.1-0.2-0.1
	c-0.5,0-1,0.2-0.8,1c0.1,0.3,0.1,0.6-0.1,0.8c-0.4,0.5-0.3,0.9,0.1,1.2C23,2.9,23,3.3,23,3.5c0.1,0.3-0.2,0.4-0.3,0.4
	c-0.4,0-0.2,0.4-0.2,0.6c-0.3-0.4-0.3-0.6-0.1-0.9c0.1-0.2-0.2-0.2-0.1-0.4c-0.4-0.4-0.7-0.2-1,0.2c0.1,0.1,0.3,0.1,0.5,0.2
	c-0.4,0.6-1.5,0.7-2.1,0.2c-0.3-0.3-0.5-0.1-0.8,0.1c-0.4,0.2,0,0.5-0.2,0.8c-0.3-0.4-0.6-0.7-1.1-0.6c-0.4,0.1-0.8,0.1-1.2,0
	c0-0.3,0.3-0.1,0.3-0.3c-0.1-0.1-0.3-0.3-0.5-0.3c-0.5,0.1-1.2,0-1.5-0.4c-0.5-0.5-1,0.5-1.3-0.3c0,0,0,0-0.1,0.1
	c0,0-0.1,0.1-0.1,0.1c0,0.1-0.1,0.3-0.2,0.2c-0.3-0.5-0.6-0.7-1.1-0.2c0,0-0.1,0-0.1,0c-0.7-0.2-1.2,0.2-1.8,0.4
	c-0.3,0.1-0.5,0.2-0.8,0C8.6,3,7.9,2.8,7.2,2.7C6.4,2.7,5.7,2.6,5,2.4C4.2,2.2,3.5,1.8,2.7,2.2C2.3,2.4,1.7,2.4,1.4,3
	C1.3,3.3,1.1,3.4,0.8,3.4c-0.1,0-0.3-0.1-0.3,0.2C0.4,3.9,0.6,3.9,0.7,4c0.4,0.4,0.9,0.5,1.4,1.2C1.2,5,0.5,4.6,0,5.4
	c0.5,0.8,1.2,0.8,1.9,0.5c0.1,0,0.2,0,0.1,0.2C2,6.2,2.3,6.5,2,6.5c-0.3,0-0.4,0.3-0.7,0.3C0.8,6.7,0.6,7.3,0.6,7.6
	c0,0.4,0.2,1,0.6,1c0.5-0.1,0.6,0,0.6,0.5c0,0.1,0.1,0.2,0.2,0.1c0.4-0.3,0.8,0.1,1.2,0C3.2,9.5,3,9.8,2.8,10
	c-0.2,0.2-0.5,0.4-0.7,0.5c-0.2,0.1-0.5,0.1-0.6,0.4c1.1-0.1,1.8-1,2.6-1.6c0.1-0.1,0.2-0.2,0.2-0.3c0-0.8,0.6-1,1-1.3
	C5.1,8.1,4.9,8.4,5,8.9c0.4-0.2,1-0.3,1-0.6c0.1-0.8,0.5-0.3,0.7-0.2C7,8.2,7.3,8.5,7.6,8.5c1.5,0,2.4,1.3,3.3,2.2
	c0.1,0.1,0.2,0.2,0.3,0.3c0.5,0.4,1.4,1.5,1.7,2.2c-0.2-0.1-0.6-0.1-0.5,0c0.5,0.5,1,0.7,1.2,1.4c0.2,0.6,0,1.2,0,1.8
	c-0.1,1.4,0.4,3,1.6,3.8c0.3,0.2,0.6,0.4,0.6,0.8c0.1,0.7,0.9,1,0.9,1.9c0,0.2,0.7,0.5,0.9,1.1c0-1.1-1-1.7-1.1-2.7
	c0.4,0,0.5,0.2,0.6,0.5c0.1,0.3,0.2,0.5,0.4,0.7c0.6,0.5,0.9,1.3,1.6,1.8c0.3,0.2,0.5,0.6,0.4,0.9c-0.1,0.7,0.3,0.9,0.7,1.1
	c0.5,0.3,1.1,0.6,1.7,0.8c0.1,0.1,0.3,0.2,0.5,0.1c0.5-0.4,0.9,0,1.2,0.4c0.1,0.2,0.3,0.2,0.5,0.3c0.5,0.2,1.2,0.2,1.4,0.9
	c0.2,0.5,0.6,0.8,0.9,1c0.3,0.2,0.7,0.9,1.1,0.1c0,0,0,0,0-0.1c0-0.1,0.1-0.1,0.2-0.1c0-0.1,0.1-0.1,0.1-0.2c-0.1,0-0.3,0-0.4,0.1
	c0,0,0,0,0,0c-0.5,0.2-1-0.1-1.1-0.6c0-0.3,0-0.6,0.1-1c0.1-0.6-0.1-0.8-0.6-0.8c-0.3,0-0.7,0-1,0c0.1-0.6,0.2-1.2,0.5-1.7
	c0.1-0.1,0.1-0.2-0.1-0.3c-0.3-0.2-0.9,0.1-1.1,0.5c-0.2,0.7-1.3,0.9-1.7,0.4c-0.5-0.6-0.7-1.4-0.5-2.2c0.1-0.4-0.1-0.8,0.2-1.2
	c0.5-0.5,1-0.8,1.7-0.5C23.9,22,24,22,24,22c0.1,0,0.2,0,0.3-0.1c0.7-0.7,1.9-0.3,2.2,0.7c0.1,0.4,0.3,1,0.6,0.9
	c0.3-0.1,0.1-0.7,0-1c0,0,0-0.1,0-0.1c-0.3-1.2-0.3-1.4,0.6-2.1c0.1-0.1,0.3-0.2,0.4-0.3c0.4-0.2,0.6-0.5,0.3-1
	c-0.1-0.1,0-0.3,0-0.4c0.6,0.5,0.1-0.6,0.5-0.4c0.2-0.9,1.4-0.7,1.4-1.8c0,0,0.1-0.1,0.1-0.1c0.5-0.2,1-0.6,1.7-0.7
	c-0.2,0.2-0.4,0.3-0.5,0.4c-0.1,0.1-0.1,0.2,0,0.3c0.1,0.1,0.2,0.2,0.3,0.1c0.3-0.5,0.9-0.4,1.3-0.7c0.3-0.2,0.4-0.4,0.1-0.7
	c-0.2,0.3-0.3,0.6-0.7,0.5c-0.3-0.1-0.6-0.3-0.5-0.7c0-0.1-0.4-0.1,0-0.3c0.1,0,0.2-0.1,0.2-0.3c0-0.2,0-0.2-0.3-0.2
	c-0.3,0-1.1,0.5-1.2,0.4c-0.1-0.1,0.8-1,1.5-0.9c0.9,0.3,1.6-0.2,2.4-0.6c0.3-0.2,0.5-0.8,0.2-0.9C34.4,11.5,34.2,11,33.7,10.9z
	 M25.8,15.4c-0.6,0.1-1.2-0.4-1.8,0C25,14.2,25.6,14.3,25.8,15.4z M25.1,17.3c-0.2,0-0.2-0.2-0.2-0.3c-0.1-0.9,0.1-1.4,0.9-1.5
	c-0.5,0.5-0.6,0.9-0.5,1.5C25.3,17.1,25.2,17.3,25.1,17.3z M26.7,15.5c0.3,0,0.6-0.1,0.9,0.2c0,0,0.1,0.1,0.1,0.2
	c0,0.1-0.1,0.1-0.2,0c-0.2-0.1-0.2,0.1-0.2,0.2c-0.1,0.2,0,0.5-0.2,0.1c0-0.1-0.3,0.1-0.1-0.2C27,15.7,26.8,15.7,26.7,15.5z
	 M27.6,16.4c-0.2,0.8-0.5,1.1-0.9,0.8C27,16.8,27.3,16.4,27.6,16.4z"/>
</svg>
