<?xml version="1.0" encoding="utf-8"?>
<!-- Generator: Adobe Illustrator 22.1.0, SVG Export Plug-In . SVG Version: 6.00 Build 0)  -->
<svg version="1.1" id="레이어_1" xmlns="http://www.w3.org/2000/svg" xmlns:xlink="http://www.w3.org/1999/xlink" x="0px"
	 y="0px" viewBox="0 0 30 35" style="enable-background:new 0 0 30 35;" xml:space="preserve">
<style type="text/css">
	.st0{fill-rule:evenodd;clip-rule:evenodd;fill:#EFEFEF;}
</style>
<g>
	<path class="st0" d="M17.6,10.2c-0.2,0.4-0.3,0.6-0.4,0.8c-0.7,0.9-0.8,1.7,0.3,2.3c0.5,0.3,1,0.6,1.5,1c1.5,1,1.6,0.9,2-1.1
		c0.2-1.4,0-2.8,0.6-4.1c0.5-0.1,0.5,0.5,0.6,0.8c0.6,2.1,2.3,3.7,2.5,6.1c0,0.2,0.2,0.4,0.4,0.5c2,1.3,2.9,3.8,4.5,5.6
		c0.9,1.1,0.6,5.5-0.3,6.9c-0.5,0.7-1,1.5-1.1,2.3c-0.3,2-1.5,3-2.9,3.7c-0.1,0.1-0.3,0.2-0.4,0.2c-1.2-0.9-2.6,0.2-3.8-0.5
		c-0.5-0.3-0.9-0.5-1.1-1.2c-0.4-1.2-0.4-1.2-1.6-2.2c-0.5-0.4,0.3-0.9,0.1-1.5c-0.6,0.3-1.1,0.8-1.5,1.6c-0.7-1.2-1-2.5-2.4-2.9
		c-1.2-0.4-2.3-0.3-3.5,0.1c-1.2,0.4-2.4,0.4-3.3,1.7c-0.1,0.2-0.6,0.2-1,0.1c-1-0.1-1.9,0-2.7,0.7c-0.5,0.5-1.1,0.5-1.5,0.2
		c-0.5-0.3-1.5-0.2-0.8-1.7c0.6-1.3-0.3-3-0.8-4.3c-0.5-1.4-0.4-2.8-0.7-4.2c-0.3-1.2,1.3-2.8,2.8-3.3c1.2-0.4,2.7-0.2,3.3-1.7
		c0.7-1.6,2.2-2.1,2.9-3.6c0.3-0.6,1.2-1.1,2-0.1c0.3,0.4,0.9,0.7,1.2-0.4c0.5-1.7,1.9-2.4,3.4-1.9C16.1,10,16.8,10.1,17.6,10.2"/>
	<path class="st0" d="M27.3,8.3c-1.1,0.4-1.8-0.1-2.4-1c-1-1.4-1.5-1.4-2.5-0.1c-0.6,0.7-1.4,0.5-1.7,0.1c-0.7-0.7-1.5-0.6-2.3-0.6
		c0.8-1.6,0.6-2.5-1-3c-0.9-0.3-1.6-1.2-2.6-0.8c-0.2,0.1-0.3-0.2-0.3-0.4c0-1.1-1.8-0.8-1.6-1.9c0.2-0.7,2.1-1,2.8,0.9
		c0.2,0.5,0.6,1.3,1,0.6c1.3-2,2.7-0.6,4-0.3c1.8,0.4,3.2,1.8,4.7,2.9c0.1,0.1,0.2,0.2,0.2,0.2C24.8,6.8,26.8,7,27.3,8.3"/>
</g>
</svg>
