<?xml version="1.0" encoding="utf-8"?>
<!-- Generator: Adobe Illustrator 22.1.0, SVG Export Plug-In . SVG Version: 6.00 Build 0)  -->
<svg version="1.1" id="레이어_1" xmlns="http://www.w3.org/2000/svg" xmlns:xlink="http://www.w3.org/1999/xlink" x="0px"
	 y="0px" viewBox="0 0 43 19" style="enable-background:new 0 0 43 19;" xml:space="preserve">
<style type="text/css">
	.st0{fill:#EFEFEF;}
</style>
<g>
	<path class="st0" d="M17.2,9.8v0.9c0.3-0.2,0.6,0,0.9-0.3c0.3-0.2,0.8-0.1,0.9,0.1c0.5,0.8,1.3,0.7,1.9,1.1
		c0.3,0.2,0.6,0.6,1.1,0.6c0.2,0,0.2,0.7,0.1,0.8c-0.1,0.2-0.3,0.3,0,0.5c0.7,0.3,1.4,0.7,2.1,1.1c0.1,0,0.2,0.1,0.2,0.2
		c-0.1,0.6-0.6,0.7-0.7,1.1c-0.1,0.2-0.4,0-0.6-0.2c-0.2-0.3-0.4-0.4-0.6-0.6c-0.2-0.2-0.3-0.2-0.3,0.2c0,0.2-0.2,0.2-0.1,0.4
		c0.2,0.4,0.7,0.4,1,1c0.2,0.4,0.1,0.6,0,0.9c-0.1,0.2-0.3-0.1-0.5-0.1c-0.3-0.1-0.5-0.4-0.9-0.4c0.2,0.5,0.8,0.5,1.1,1.2
		c-0.9-0.5-1.8-0.3-2.3-1.3c-0.3-0.5-0.9-0.9-1.5-0.5c-0.2,0.2-0.6,0.2-0.7-0.1C18,16.2,18,16,18.1,16c0.2-0.2,0.3-0.4,0.7-0.2
		c0.5,0.2,0.6,0,0.7-0.6c0-0.2,0.2-0.2,0.4-0.4c0.4-0.3,0.4-0.7,0-1.1c-0.6-0.5-1.3-0.9-1.8-1.5c-0.2-0.2-0.3,0-0.4,0.2
		c-0.1,0.2-0.2,0.4-0.4,0.3c-0.6-0.4-1.1-0.2-1.8-0.3c-0.5-0.1-0.9-0.2-1.4-0.3c-0.2,0-0.3-0.1-0.4-0.3c0.2-0.3,0.5,0.2,0.6-0.1
		c0,0,0-0.1-0.1-0.1c-0.3-0.2-1,0-0.8-0.8c0.2-0.7,0.4-1.2,1.1-1.4c0.2,0,0.4,0,0.6,0c-0.2,0.4-0.6,0.6-0.6,1.1
		c0.1,0.5,0.5,0.6,0.6,1c0.2-0.6-0.4-1.3,0-1.7c0.5-0.4,1.1-0.7,1.7-0.2C17.2,9.8,17.2,9.8,17.2,9.8"/>
	<path class="st0" d="M3.3,10.1C3.6,10,3.8,9.9,4,9.9c0.1-0.1,0.2-0.1,0.2-0.1c0.1,1,1.1-0.2,1.2,0.6c0,0.1,0.2,0.1,0.2,0
		c0.5-0.8,0.6,0,0.9,0.2c0.1,0.2,0.1,0.4,0.4,0.4c-0.1-0.2-0.2-0.5-0.2-0.7c-0.1-0.3-0.1-0.6,0.3-0.5C7.3,10,7.4,10,7.3,9.7
		C7.2,9.5,7.6,9.4,7.8,9.5C8,9.6,8.1,9.7,8,10c-0.3,0.9,0.1,1.8,0.8,2.2c0.2,0.1,0.5,0.1,0.6,0.4c-0.1,0.2-0.3,0.1-0.5,0.1
		c-0.2,0-0.2,0.1-0.2,0.2c0.1,0.4,0,0.6-0.2,0.5c-1-0.5-1.8,0-2.7,0.2c-0.5,0.1-1,0.4-1.4-0.4c-0.1-0.2-0.5-0.1-0.7-0.2
		c-0.2,0-0.5-0.1-0.5-0.4c0-0.4,0.3-0.3,0.5-0.3c0.4,0,0.8,0,1.4,0c-0.7-0.7-1.6,0-2.3-0.5c0.2-0.3,0.5-0.2,0.6-0.5
		c-0.3,0.2-0.8,0.2-0.9-0.2C2.7,10.6,3,10.3,3.3,10.1L3.3,10.1z"/>
	<path class="st0" d="M15.4,4.5c-2.2,1.4-2.5,1.4-3.2,0.4c0.2-0.2,0.5,0,0.6-0.3c-0.4-0.2-0.9,0.4-1.3-0.2c-0.2-0.3-0.2-0.4-0.1-0.8
		c0.4-1,1.1-1.1,1.9-0.5c0.3,0.3,0.6,0.6,1.2,0.4c0.1,0,0.2,0.1,0.2,0.2C14.6,4.1,14.9,4.3,15.4,4.5"/>
	<path class="st0" d="M3.3,10.1c-0.5,0-0.8,0.3-1.1,0.7c-0.7,0.9-0.8,0.9-1.7,0.3C0.3,11,0.2,10.9,0,10.8c0.2-0.6,0.8-1.1,0.5-1.9
		c1.2-0.1,2.3-0.1,3.4,0.6C3.8,9.9,3.4,9.8,3.3,10.1L3.3,10.1"/>
	<path class="st0" d="M11.7,6.6C12.1,6.7,12.5,7,13.1,7c0.2,0,0.2,0.4,0.4,0.6c0.6,0.6,1.4,0.4,2,0.3c0.4-0.1,0.8-0.2,1.2-0.1
		c0.2,0.1,0.7,0,0.6,0.6c-0.1,0.5-0.6,0.5-0.7,0.4c-0.4-0.3-0.8-0.1-1.1,0c-0.7,0.1-1.5-0.2-2.3-0.1c-0.5,0-0.6-0.2-0.6-0.7
		c0-0.6-0.2-0.8-0.7-0.7c-0.2,0-0.5,0.1-0.6-0.1c-0.2-0.1-0.3-0.2-0.3-0.4C11.2,6.5,11.4,6.5,11.7,6.6"/>
	<path class="st0" d="M6.3,7.9C6.2,7.7,6.2,7.5,6.1,7.4C5.9,7.2,6.1,7.1,6.2,7c0.2-0.2,0.3-0.2,0.4,0C6.8,7.5,7,7.8,7.5,7.6
		c0.1-0.1,0.2,0,0.2,0.2c0,0.2-0.1,0.6-0.3,0.6c-1-0.1-1.8,0.5-2.7,0.6c-0.2,0-0.2,0-0.1-0.3c0.1-0.2-0.1-0.4-0.2-0.4
		C4.4,8.2,4.2,8.3,4,8.4C3.7,8.5,3.5,8.3,3.2,8.1c0.1-0.2,0.2-0.6,0.3-0.7C3.8,7.3,4,6.9,4.4,7.1C5,7.4,5.5,8.1,6.3,7.9"/>
	<path class="st0" d="M8.1,7c0.2-0.1,0.5,0,0.6,0.2c0.2,0.6,0.6-0.2,0.9,0.2C9.4,6.8,9.8,7.1,10,7.1c0.3,0,0.6-0.2,0.6,0.3
		c0,0.3,0.2,0.8-0.2,1c-0.2,0.1-0.8,0.5-0.9-0.3C9.6,7.8,9.3,8,9.1,8C8.7,7.7,8.2,7.7,8.1,7"/>
	<path class="st0" d="M1.1,7.5c1.7-1.2,1.8-1.2,2.7-1.2C3.6,7,3.6,7,2.9,6.9C2.8,6.9,2.8,7,2.8,7C2.4,7.8,1.9,7.6,1.1,7.5"/>
	<path class="st0" d="M7.8,4.6C9,4.4,9.9,4.9,10.3,6C9.5,5.7,8.8,5.4,8,5.5c0.1-0.4,0.4-0.2,0.4-0.3C8.3,4.8,7.9,5,7.8,4.6"/>
	<path class="st0" d="M5.5,5.7C5.7,5.8,6,5.6,6,5.9c0,0.6-0.4,0.3-0.6,0.4C5.2,6.5,4.8,6.3,4.9,6C4.9,5.6,5.3,5.8,5.5,5.7"/>
	<path class="st0" d="M27.8,12.4c-0.2-0.1-0.3-0.2-0.4-0.3c0.3-0.2,0.6,0,0.9,0.2c0.2-0.6-0.6-0.6-0.9-1.1c-0.4,0.6-0.6,0.2-0.7-0.2
		c-0.2-1-0.2-1.4-0.7-2.3c-0.8-1.4-2.2-1.4-3.5-1.2c-0.6,0.2-0.6,0.2-1.1-0.5c-0.2-0.2-0.4-0.2-0.7-0.3c0.6-0.4,1.2-0.2,1.7-0.4
		C22.3,6,22.2,6,22.1,6c-0.6,0.3-1.2-0.2-1.8-0.4c-0.1,0-0.2-0.2-0.2-0.2c0-0.2,0.1-0.2,0.2-0.2c0.6-0.2,1.1-0.5,1.7-0.5
		c0.6,0,0.8-0.3,0.9-1c-0.2-0.1-0.6,0.2-0.9-0.2c0.5-0.6,1.2-0.7,1.9-0.9c0.2,0,0.3,0.1,0.4-0.1c0.6-1.4,1.8-0.8,2.7-1
		c0.2-0.1,0.2,0.2,0.3,0.3c0,0.1,0.1,0.1,0.2,0.2c0.3-1,0.8,0.3,1.1-0.2c-0.2-0.3-0.3-0.6,0.2-0.5c0.4,0.1,0.8,0.3,1.2,0.5
		c0.2,0.1,0.4,0.3,0.6,0c0.1-0.2,0.2-0.6-0.2-0.7c-0.2-0.1-0.2-0.2-0.5-0.4c1.1-0.2,1.9-0.3,2.8-0.2c0.2,0,0.3-0.4,0.6-0.4
		c1.4-0.1,2.6-0.2,4,0.2c-0.2,0.2-0.5,0-0.8,0.3c0.9-0.2,1.9,0.2,2.7,0.4c-0.6,0.8-2,0.5-2.8,0.6c0.7-0.2,1.5,0.2,2.2,0.2
		c0.2,0,0.6-0.4,0.8-0.1s-0.2,0.8-0.4,1c1.3-0.4,2.8-1.1,4-0.5c-0.3,0.5-1,0.6-1.5,0.9c-0.4,0.2-1.1,0.3-1.4,0.5
		c-0.6,0.4,0.1,0.2-0.1,0.9c-0.1,0.4-0.7,0.7-0.9,1.3c0.4-0.1,0.6,0,0.6,0.4c0.2,0,1.1,0.1,0.6,0.5c-0.1,0.1-1.2,0-1.5,0.1
		c0.5,0.6,1.8,0.9,0.6,1.4c0.3,0,0.6,0.2,0.6,0.6c-0.4,0-0.6,0.2-0.5,0.6C39,9.3,39,9.4,38.8,9.7c-0.2,0.6,0.1,0.7,0.2,1.1
		c0.1,1.6-0.6,0.2-1.4,0.1c0,0.3,0,0.6-0.3,0.8c0.4,0,0.9,0.1,1.3,0.2c-0.8,0.9-2.1,1.4-3.2,1.4c-0.3,0-0.6,0.4-0.7,0.7
		c-0.4,0.6-1,1-1.7,1c-0.4,0-0.8,0.2-1,1c-0.2,1-0.7,1.8-1,2.7c-0.1,0.3-0.3,0.2-0.5,0.2c-1.1-0.3-1.9-1-2.4-1.9
		c-0.5-0.7-1.3-2.3-1.1-3.2c0.2-0.6,0.6-0.4,0.8-0.8C28.8,12.7,28.2,12.6,27.8,12.4"/>
	<path class="st0" d="M13.9,2.9c-0.3-0.4,0.3-0.3,0.2-0.6c-0.2,0.1-0.5,0.1-0.7-0.1c1.3-0.4,2.5-1,3.8-0.1c0-0.1,0-0.2,0-0.2
		c-0.2-0.1-0.4-0.2-0.6-0.2c0-0.1,0-0.2,0-0.2c2.7-0.7,5.3-0.7,8,0.2c-0.6,0.6-1.4,0.6-2,0.8c0.1,0.2,0.3,0,0.5,0.2
		c-0.6,0.3-1.3,0.7-1.9,1c-0.7,0.3-1.4,0.9-2.2,0.8c-0.2,0,0,0.2-0.1,0.3c-0.2,0.2,0,0.2,0.1,0.2c0.2,0,0.3,0.1,0.5,0.2
		C19.1,5.4,19,6,18.4,5.8c-0.5-0.2-0.5,0.9-1.2,0.6c0.3,0.2,0.5,0.4,0.7,0.5c-0.6,0.9-1.3,0.1-1.9,0.2c-0.6,0.1-1.5,0.3-2.1-0.2
		c0.2-0.2,0.3-0.4,0.5-0.4c0.1,0,0.3,0.1,0.2-0.2C14,5.6,14.8,5.9,14.8,6c0.6,0.6,0.5-0.1,0.6-0.3h-1.1c0.5-1,1.3-0.4,1.9-0.6
		c-0.4-0.2-0.6-0.6-0.9-0.8c-0.2-0.2-0.6-0.1-0.5-0.5c0.1-0.2,0.5,0,0.6-0.1c0.7,0,1.5-0.3,2.2-0.6c0.1,0,0.2-0.2,0.1-0.3
		c-0.2-0.2-0.2-0.2-0.4,0c-0.8,0.7-1.7,0.4-2.6,0.2c0.3-0.1,0.6-0.2,1-0.2C15.2,2.5,14.6,2.8,13.9,2.9"/>
</g>
</svg>
