<?xml version="1.0" encoding="utf-8"?>
<!-- Generator: Adobe Illustrator 22.1.0, SVG Export Plug-In . SVG Version: 6.00 Build 0)  -->
<svg version="1.1" id="레이어_1" xmlns="http://www.w3.org/2000/svg" xmlns:xlink="http://www.w3.org/1999/xlink" x="0px"
	 y="0px" viewBox="0 0 30 35" style="enable-background:new 0 0 30 35;" xml:space="preserve">
<style type="text/css">
	.st0{fill-rule:evenodd;clip-rule:evenodd;fill:#EFEFEF;}
</style>
<g>
	<path class="st0" d="M17,2.4c-0.6-0.4-1.1-0.1-1.2,0.7c-0.1,0.4-0.3,0.6-0.6,0.4c-0.2-0.2-0.6-0.2-0.7-0.3C13.7,2.5,12.8,2.3,12,2
		c-0.2-0.1-0.7-0.2-0.2-0.7c0.3-0.3,0-0.8-0.1-1.1c-0.1-0.2-0.5-0.2-0.8-0.1c-0.9,0.2-1.8,0-2.7,0.2C7.8,0.4,7.4,0.5,7,0.7
		C6.6,1,6.1,1.1,5.6,1C5.4,1,5.1,1.1,5,0.9C4.9,0.9,4.7,0.9,4.6,1C4.5,1.4,4.3,1.8,3.9,1.9C3.3,2.1,3,2.7,3.1,3.2
		C3.2,4,2.7,4.4,2.3,4.6C0.9,5.2,0.8,6.8,0,7.9C0,7.9,0,8.2,0.1,8.3c0.4,0.8,0.3,1.7,0.1,2.5c-0.2,0.8-0.3,1.5,0.4,2
		c0.3,0.3,0.8,0.6,0.9,1C1.9,15.1,3,15.3,3.7,16c0.1,0.1,0.3,0.2,0.4,0.1c1.3-0.7,2.8,0,4-0.8c0.5-0.4,1.1-0.2,1.4,0.5
		c0.1,0.4,0.3,0.4,0.7,0.3c1.1-0.2,1.4,0.1,1.1,1.3c-0.3,1-0.2,1.9,0.6,2.5c0.5,0.5,0.7,1.2,0.8,1.8c0.1,0.9,0.6,1.7-0.1,2.7
		c-0.5,0.7-0.7,1.9,0,2.9c0.4,0.6,0.8,1.3,0.8,2.2c0,0.8,0.3,1.7,0.8,2.4c0.4,0.5,0.9,1.2,0.7,2.1c-0.1,0.5,0.3,1,1,0.8
		c0.5-0.1,0.9-0.3,1.4-0.3c0.8,0.1,1.6-0.2,2.1-0.9c0.7-1,1.8-1.7,1.7-3.2c0-0.1,0.2-0.3,0.3-0.3c0.9-0.5,1-0.8,0.6-1.9
		c-0.2-0.5-0.1-0.8,0.3-1.1c0.5-0.4,0.9-0.8,1.5-1.1c0.7-0.3,0.9-2.2,0.4-3.2c-0.5-1-0.7-2-0.1-3c0.6-1,1.2-1.9,2.1-2.5
		c1.3-0.9,1.9-2.4,2.6-3.8c0.1-0.3,0.3-0.7,0-1c-0.8,0.5-1.8,0.4-2.6,0.7c-0.3,0.1-0.6-0.2-0.6-0.4c-0.1-0.8-0.7-1.1-1.1-1.6
		c-0.2-0.2-0.5-0.3-0.6-0.6c-0.2-1-1.1-1.6-1-2.7c0-0.1,0-0.2-0.1-0.3c-0.7-0.8-0.9-1.9-1.4-2.8c0.1,0,0.1-0.1,0.2-0.1
		c-0.2-0.6-0.5-1.1-0.8-1.6C19.6,3.1,18.2,3.3,17,2.4"/>
	<path class="st0" d="M29.6,23.9c0.4,0.7,0.6,1.1,0.3,1.8c-0.4,1-0.8,2.1-1.1,3.1c-0.1,0.5-0.3,0.9-1,1c-0.4,0.1-0.8,0-1-0.3
		c-0.2-0.5-0.7-1-0.2-1.6c0.3-0.4,0.5-0.8,0.2-1.3c-0.2-0.5,0-0.9,0.6-1C28.5,25.4,29,24.7,29.6,23.9"/>
</g>
</svg>
