<?xml version="1.0" encoding="utf-8"?>
<!-- Generator: Adobe Illustrator 22.1.0, SVG Export Plug-In . SVG Version: 6.00 Build 0)  -->
<svg version="1.1" id="레이어_1" xmlns="http://www.w3.org/2000/svg" xmlns:xlink="http://www.w3.org/1999/xlink" x="0px"
	 y="0px" viewBox="0 0 35 28" style="enable-background:new 0 0 35 28;" xml:space="preserve">
<style type="text/css">
	.st0{fill-rule:evenodd;clip-rule:evenodd;fill:#EFEFEF;}
</style>
<path class="st0" d="M1.7,6.1c0,0.1,0.1,0.2,0,0.2c-0.1,0-0.1,0.1-0.1,0.1c0,0,0.1,0.1,0.1,0.1c0,0,0.2,0.1,0.2,0.1
	c0,0.1-0.1,0.2-0.1,0.3C1.9,7,2,7,2.1,7.1c0,0,0.2,0.2,0.2,0.2c0,0,0.3-0.1,0.3,0c0,0,0.2,0.1,0.2,0.1c0.1,0,0.1,0,0.1-0.1
	c0-0.1-0.1-0.2-0.1-0.3c0,0,0.1-0.1,0.2-0.1C3,7,3.3,7.2,3.4,7.2c0.1,0,0.1,0,0.1-0.1c0-0.1,0.1-0.2,0.1-0.2C3.7,7,3.9,7,4,7.1
	c0,0,0.1,0.1,0.1,0.1c0,0,0.2,0.1,0.3,0.1c0.1,0,0.2,0.1,0.2,0.1c0,0,0.2,0,0.1,0c-0.1,0-0.2-0.1-0.2-0.1c0,0-0.1-0.1,0-0.1
	s0.2,0.1,0.2,0.1c0.1,0,0.1,0,0.2,0.1c0.1,0.1,0.2,0.2,0.2,0.2c0.1,0,0.4,0.2,0.5,0.2C5.8,7.8,6,7.8,6,7.8c0,0,0.2,0,0.3,0
	c0.1,0,0.1,0,0.1,0.1C6.5,8,6.7,8.3,6.8,8.3c0.1,0,0.3,0.1,0.3,0.1c0,0,0.2,0.1,0.2,0.2c0,0.1,0,0.1,0,0.2c0,0,0.1,0.1,0.1,0.1
	s-0.1,0.2,0,0.2c0.1,0,0.2,0.2,0.3,0.2c0,0,0.1,0.1,0.1,0.2c0,0.1,0,0.2,0,0.2c0,0,0,0.2,0,0.3s0,0.3,0,0.3c0,0.1,0.2,0.4,0.2,0.5
	c0,0.1,0,0.1-0.1,0.3c-0.1,0.2-0.1,0.3-0.2,0.3c-0.1,0.1-0.2,0.1-0.3,0.2c-0.1,0.1-0.1,0.1-0.1,0.1c0,0.1,0.3,0,0.4,0
	c0.1,0,0.2,0,0.3-0.1c0.1,0,0.1-0.2,0.2-0.3c0.1-0.1,0.1-0.1,0.2-0.2c0.1,0,0.3,0.1,0.4,0.2c0.1,0,0,0.2,0,0.3
	c-0.1,0.1-0.1,0.2-0.2,0.3c-0.1,0.1,0.2,0.1,0.3,0.1c0.1,0,0.2,0.1,0.3,0.1c0.1,0,0.1-0.1,0.2-0.2c0.1-0.1,0.4,0.2,0.5,0.2
	c0.1,0,0.2,0,0.3,0c0.1,0,0.3,0,0.4,0c0.1,0,0.2-0.6,0.3-0.7c0.1-0.1,0.4-0.1,0.5-0.1s0.3,0.1,0.4,0.2c0.1,0.1,0.2,0,0.2-0.1
	c0.1-0.1,0.2,0,0.4,0c0.1,0,0.3,0.2,0.4,0.2c0.1,0.1,0.2,0.2,0.4,0.3c0.1,0.1,0.1-0.2,0.1-0.3c0-0.1-0.5-0.4-0.7-0.7
	c-0.2-0.2-0.1-0.8-0.1-0.9c0-0.1,0.1-0.1,0.3-0.2c0.1,0,0.2,0.1,0.4,0.2c0.2,0.1,0.1-0.4,0-0.6c-0.1-0.1-0.2-0.3-0.2-0.4
	c-0.1-0.1,0.1-0.5,0.3-0.7c0.1-0.2,0.3-0.5,0.3-0.7c0-0.2-0.1-0.2-0.2-0.2c-0.1,0-0.6,0-0.8,0c-0.1,0-0.3-0.2-0.4-0.3
	c0-0.1-0.1-0.3-0.1-0.4c0,0,0,0,0,0c0-0.1-0.1-0.5-0.1-0.6c0-0.1,0.2-0.2,0.2-0.3c0.1-0.1,0-0.2,0.1-0.6c0.1-0.4,0.1-0.4,0.2-0.5
	c0,0,0-0.1,0.1-0.1c0.1-0.1,0.3-0.2,0.3-0.3c0.1-0.1,0.3-0.2,0.4-0.2c0.1,0,0.3-0.2,0.4-0.3c0.1-0.1,0-0.5,0-0.7
	c0-0.2,0.2-0.2,0.4-0.2c0.2,0-0.2-0.2-0.3-0.3c-0.1-0.1-0.1-0.2-0.1-0.3c0-0.1,0.1-0.2,0.1-0.4c0.1-0.2,0.3,0,0.4,0
	c0.1,0,0-0.2,0.1-0.3c0-0.1,0.3-0.2,0.3-0.2s0.1-0.2,0.1-0.3c0-0.1,0-0.5,0-0.6c0-0.1,0-0.1,0-0.2c0,0,0,0,0-0.1
	c0.1-0.1,0.2,0,0.2,0s0.1,0.2,0.1,0.3c0,0.1,0.1,0.1,0.2,0.1c0.1,0,0-0.5,0-0.6c0-0.1,0.2-0.1,0.3-0.1c0,0,0.1,0,0.1,0c0,0,0,0,0,0
	c0,0,0,0.2,0,0.2c0,0.1,0.1,0.1,0.1,0.2c0.1,0,0.5,0,0.5,0c0.1,0,0.1-0.1,0.2-0.1c0.1-0.1,0.2,0.2,0.3,0.2c0.1,0,0.1,0,0.2,0.1
	c0.1,0.1,0.1-0.1,0.2-0.2c0-0.1,0.1-0.2,0.2-0.2c0.1-0.1,0.2-0.1,0.3-0.2c0.1,0,0.2,0,0.3,0s0.2,0,0.2-0.1c0,0,0.1,0,0.1,0
	c0.1,0,0.1,0,0.2,0c0.1,0,0.2,0,0.2,0C18.9,0.1,19,0,19.1,0c0,0,0.1,0,0.2,0c0.1,0,0.2-0.1,0.2-0.1s0.4,0.1,0.4,0.2
	c0,0.1,0,0.2,0.1,0.2s0.3,0,0.3,0s0.2-0.2,0.2-0.2c0,0,0,0,0,0c0.1,0.1,0.3,0.1,0.4,0.1c0.1,0,0.2,0.1,0.3,0c0.1-0.1,0.2-0.1,0.2,0
	c0,0.1-0.1,0.2,0,0.2c0.1,0.1,0.2,0.1,0.3,0.1c0,0,0.2-0.2,0.2-0.2c0.1,0,0.1,0.1,0.1,0.1c0,0.1-0.1,0.2-0.1,0.3
	C21.9,1,22.1,1,22.1,1c0.1,0,0.3,0,0.3,0c0.1,0,0.2-0.2,0.2-0.2c0,0,0,0,0,0c0,0.1,0,0.2,0,0.3c0,0.1,0,0.1,0,0.2
	c0.1,0,0.1,0.1,0.2,0c0.1,0,0.1,0,0.2,0c0,0.1,0.2,0.2,0.2,0.2c0,0.1,0.1,0.2,0.2,0.2c0.1,0,0.2-0.2,0.3-0.1
	c0.1,0.1,0.2,0.1,0.3,0.1c0.1,0,0.2-0.1,0.3-0.1c0.1,0,0.5,0.2,0.6,0.2c0.1,0,0.4,0,0.4-0.1c0-0.1,0.1-0.2,0.1-0.3
	c0,0,0-0.1,0.1-0.1C25.6,1.2,25.8,1,25.9,1c0.1,0,0.3,0.1,0.2,0.2c-0.1,0.1-0.3,0.2-0.2,0.3c0.1,0,0.1,0.1,0.2,0.1
	c0,0.1,0,0.2-0.1,0.3C25.9,1.9,25.9,2,25.9,2c0.1,0,0.2,0.1,0.2,0.1c0.1,0,0.2,0,0.2,0.1c-0.1,0.1-0.2,0.2-0.1,0.2
	c0.1,0,0.3-0.1,0.3-0.1c0,0.1-0.1,0.2-0.1,0.2c0,0,0,0.1,0.1,0.1c0.1,0,0.2,0,0.3,0c0.1,0,0.2,0,0.2-0.1c0-0.1,0.2-0.3,0.2-0.3
	c0.1,0,0.2,0,0.3,0c0.1,0,0.4,0,0.5,0.1c0,0.1,0,0.1,0.1,0c0.1,0,0.2-0.1,0.2,0c0.1,0,0.2,0.1,0.2,0.1c0.1,0,0.3,0.1,0.4,0.1
	c0.1,0.1,0.2,0.2,0.3,0.2s0.2-0.1,0.3-0.1c0.1,0,0.1,0.1,0.1,0.1c0,0.1-0.1,0.1,0,0.2c0,0.1,0.1,0.3,0.2,0.2C29.8,3.2,29.9,3,30,3
	c0.1,0,0.3-0.1,0.3,0c0,0.1-0.2,0.2-0.2,0.3c0,0.1,0.1,0.2,0.2,0.2s0.1-0.1,0.2-0.1c0.1,0,0.4-0.2,0.5-0.2c0.1,0,0.2,0.1,0.3,0.2
	c0.1,0,0.3,0.1,0.4,0.2c0.1,0.1,0.3,0.3,0.3,0.4C32,3.9,32.1,4,32,4.1c-0.1,0.1-0.1,0.2-0.1,0.2c0,0.1,0.1,0.4,0.1,0.4
	c-0.1,0-0.1,0.1-0.2,0.1s-0.2,0-0.1,0.1c0.1,0.1,0.2,0.1,0.2,0.2s0,0.2,0,0.2s-0.1,0.1-0.1,0.2c0,0.1,0,0.2,0.1,0.3
	c0.1,0.1,0.1,0,0.2,0.2c0.1,0.2,0.1,0.3,0.1,0.3c0,0.1,0,0.3,0.1,0.3c0.1,0,0.1,0,0.1,0.1c0.1,0.1,0.2,0.2,0.1,0.3
	c0,0.1-0.1,0.1-0.1,0.2c0.1,0.1,0.3,0.5,0.2,0.5c0,0.1,0,0.1,0,0.2c0,0.1,0.1,0.2,0.1,0.2c0,0.1,0.1,0.1,0.2,0.1
	c0.1,0.1,0.2,0.1,0,0.2c-0.1,0-0.3,0-0.4,0.1c0,0-0.1,0.1-0.2,0.1c-0.1,0-0.1,0.1-0.2,0.1c-0.1,0-0.3,0-0.4-0.1
	c-0.1-0.1-0.2-0.1-0.3-0.1c-0.1,0-0.4,0-0.2,0.1c0.1,0.1,0.2,0.1,0.2,0.1c-0.1,0-0.3,0.1-0.3,0c0-0.1-0.2-0.3-0.2-0.1s0.1,0.2,0,0.3
	c-0.1,0.1-0.2,0.2-0.3,0.1C30.4,9,30.1,9,30.1,9c-0.1,0.1-0.4,0.2-0.4,0.2c0,0-0.2-0.2-0.2-0.2S29.1,9,29,9c-0.1,0-0.3,0.1-0.3,0.2
	c0,0.1,0.1,0.1,0.2,0.1c0.1,0,0.6,0,0.7,0.1c0.1,0,0.3,0.1,0.4,0.2c0.1,0,0.4,0.1,0.5,0.1c0.2,0,0.2,0,0.3,0c0.1,0,0.4,0.2,0.5,0.1
	c0.1,0,0.2-0.1,0.2-0.1c0.1,0,0.2,0.1,0.3,0.2c0,0,0,0,0,0h0c0,0.1,0,0.1,0,0.2c0,0.1,0,0.1,0,0.2c0.1,0,0.1,0.1,0.2,0.1
	c0.1,0,0.3,0.1,0.3,0.2c0,0.1,0.1,0.1,0.1,0.2c0.1,0,0.3,0.1,0.4,0.1c0.1,0,0.2,0,0.2,0.1c0,0.1,0.2,0.3,0.2,0.3
	c0,0,0.1,0.1,0.2,0.2s0.2,0.1,0.2,0.2s0,0.1,0.1,0.1c0,0,0,0,0,0c0,0.1,0.1,0.1,0.1,0.1c0,0.1,0,0.1,0.1,0.1c0,0,0.1,0.1,0.2,0.2
	c0.1,0.1,0.2,0.1,0.2,0.2c0,0.1,0,0.1,0.1,0.2c0.1,0,0.3,0.1,0.2,0.1c-0.1,0-0.2,0-0.2,0.1c0,0.1,0.1,0.2,0.1,0.3
	c0,0.1,0.1,0.2,0.1,0.3c0,0,0,0,0,0.1c0,0,0,0.1,0,0.1c0,0.1,0.1,0.1,0,0.2c0,0.1-0.1,0.2,0,0.2c0.1,0,0.1,0.1,0.1,0.1
	c0,0,0.1,0.7,0.1,0.8c0,0.1-0.1,0.4-0.1,0.5s-0.1,0.4,0,0.4c0.1,0,0.2,0,0.2,0.1c0,0,0.1,0,0.1,0c0,0,0.1,0.2,0,0.2
	c-0.1,0-0.2-0.1-0.2,0c0,0.1-0.1,0.2-0.1,0.3c0,0.1,0.1,0.3,0,0.3c-0.1,0-0.2,0-0.2,0.1c0.1,0.1,0.1,0.2,0.1,0.2
	c0,0.1,0.1,0.2,0.1,0.2c0.1,0.1,0.2,0.2,0.2,0.3c0,0.1,0.1,0.3,0.1,0.4c0,0,0,0.1,0,0.1c-0.1,0.1-0.1,0.1-0.2,0.1
	c0,0.1-0.1,0.2-0.2,0.3v0c0,0,0,0,0,0c0,0.1-0.1,0.1-0.1,0.2c-0.1,0.1-0.2,0.1-0.2,0.1c0,0.1,0,0.2-0.1,0.2c-0.1,0-0.2,0.1-0.2,0.1
	c0,0-0.2,0.2-0.2,0.2c-0.1,0-0.1,0-0.2,0.1c0,0.1-0.1,0.3-0.1,0.4c0,0.1,0.1,0.1,0.1,0.2c0.1,0,0.2,0.1,0.3,0.2
	c0,0.1,0.1,0.3,0.1,0.5c-0.1,0.1-0.2,0.5-0.3,0.4c-0.1-0.1-0.1-0.1-0.2-0.1s-0.3-0.1-0.3,0c0,0.1-0.1,0.2-0.2,0.2
	c-0.1,0-0.3-0.1-0.3-0.2c-0.1-0.1-0.2-0.4-0.2-0.2c0,0.2,0,0.3,0,0.4s0.1,0.3,0,0.4s-0.3,0.2-0.3,0.3c-0.1,0.1,0,0.3-0.1,0.4
	c-0.1,0-0.2,0.1-0.2,0.2c0,0.1,0,0.4,0,0.4s0,0.3-0.1,0.3c0,0.1-0.3,0.3-0.3,0.4c0,0.1,0.1,0.4-0.1,0.4c-0.1,0-0.4,0.1-0.5,0.1
	c-0.1,0-0.2,0.1-0.2,0.1c-0.1,0.1-0.3,0.3-0.2,0.4c0.1,0.1,0.4,0.4,0.2,0.5s-0.3,0.4-0.3,0.4c-0.1,0.1-0.1,0.2-0.1,0.2
	c0,0.1-0.1,0.2-0.1,0.2s-0.2-0.2-0.3-0.1c-0.1,0.1-0.2,0.1-0.2,0.2s0,0.2-0.1,0.2c-0.1,0-0.2,0-0.2,0c0,0.1-0.4,0.4-0.4,0.4
	c0,0-0.1-0.1-0.2,0c0,0-0.2,0.2-0.3,0.2c-0.1,0-0.2,0-0.2,0.1c0,0-0.1,0.1-0.1,0.1S28,26.9,28,27c0,0.1-0.1,0.2-0.1,0.2
	c-0.1,0-0.2-0.1-0.2-0.1c-0.1,0.1-0.1,0.3-0.2,0.2c-0.1,0-0.1-0.1-0.2,0c0,0-0.1,0.1-0.2,0.1c0,0,0,0,0,0C27,27.3,26.9,27,26.9,27
	c-0.1,0-0.1,0.1-0.2,0.1s-0.1,0.2-0.1,0.2c0,0,0,0-0.1,0c0,0-0.1-0.1-0.1-0.1c-0.1,0-0.2,0-0.2-0.1c0,0,0,0,0,0
	c0-0.1-0.1-0.2-0.2-0.1c-0.1,0.1-0.1,0.1-0.1,0.1c0,0,0,0,0,0c-0.1,0-0.1,0.1-0.2,0.1c-0.1,0.1-0.3,0.3-0.5,0.3c-0.1,0-0.2,0-0.3,0
	c-0.1,0-0.4,0-0.4,0.1c0,0.1-0.1,0.3-0.1,0.4c-0.1,0-0.2,0-0.2-0.1c0-0.1-0.1-0.2-0.2-0.2c-0.1,0-0.5-0.1-0.6,0
	c-0.1,0-0.3,0.2-0.3,0.2c-0.1,0.1-0.1,0-0.2-0.1c-0.1-0.1-0.2,0-0.2,0.1c-0.1,0-0.2-0.1-0.2-0.1c-0.1-0.1-0.1-0.2-0.1-0.3
	c0-0.1-0.1,0-0.2,0.1c-0.1,0.1-0.2-0.1-0.2-0.2c0-0.1-0.1-0.1-0.1-0.2c-0.1-0.1-0.1-0.1-0.2-0.2c-0.1-0.1,0,0.3,0,0.4
	c0,0.1,0,0.2,0,0.2c0,0.1-0.1-0.1-0.1-0.1c0-0.1-0.2-0.1-0.2-0.1c-0.1,0-0.1,0.1-0.2,0.2c-0.1,0.1-0.2,0-0.3-0.1
	c-0.1-0.1-0.2,0.1-0.2,0.2c0,0.1-0.1,0-0.1-0.1c-0.1-0.1-0.1,0-0.2,0c-0.1,0-0.1-0.2-0.1-0.3c0-0.1-0.2-0.1-0.3-0.2
	c-0.1,0-0.2-0.1-0.3-0.1c-0.1-0.1-0.2,0-0.2,0s0-0.3,0-0.3s0-0.1,0.1-0.1c0.1,0,0-0.1-0.1-0.2c-0.1-0.1,0-0.1,0-0.2
	c0-0.1,0-0.2,0.1-0.3c0-0.1,0.1-0.2,0.1-0.2c0.1-0.2,0.2,0,0.3,0c0.1,0,0-0.2,0.1-0.3c0-0.1,0.1-0.1,0.1-0.1c0,0,0.2-0.2,0.2-0.3
	c0-0.1,0-0.2-0.1-0.3c0-0.1,0.2-0.2,0.2-0.2c0.1,0,0.1,0,0.1-0.1s0-0.5-0.1-0.7c0-0.1-0.1-0.2-0.1-0.2s-0.1-0.2-0.1-0.3
	c0-0.1-0.2-0.3-0.3-0.4c-0.1-0.1-0.1-0.2-0.2-0.3c0,0-0.1-0.1-0.1-0.2c0,0,0,0,0-0.1c0-0.1-0.1,0-0.2-0.1c-0.1,0-0.1,0-0.2-0.1
	c-0.1,0,0-0.2,0-0.3c0-0.1,0.1-0.1,0.2-0.1c0.1,0,0.1-0.2,0.2-0.3s0.2-0.2,0.2-0.2c0.1-0.1,0-0.2,0-0.3c0-0.1-0.1-0.3-0.2-0.3
	c0-0.1-0.1-0.3-0.2-0.4s-0.1-0.3-0.1-0.3c-0.1-0.1-0.3-0.4-0.4-0.4s-0.2-0.2-0.3-0.2c-0.1-0.1-0.2-0.2-0.3-0.2
	c-0.1-0.1-0.1-0.1-0.2-0.2c0-0.1-0.2-0.1-0.2-0.1c0,0-0.1-0.2-0.2-0.2c-0.1-0.1-0.1,0-0.2,0c-0.1,0-0.2-0.1-0.2-0.1
	c0-0.1-0.2-0.1-0.2-0.1S16.9,18,16.9,18c-0.1,0-0.2-0.1-0.2-0.1c-0.1-0.1-0.1,0-0.2,0c-0.1,0-0.1-0.2-0.1-0.3c0-0.1-0.1-0.1-0.2-0.1
	c-0.1,0-0.1-0.2-0.1-0.3c0-0.1-0.3-0.2-0.3-0.2c-0.1,0-0.2-0.1-0.2-0.1c0,0-0.1-0.1-0.1,0c0,0.1-0.1,0.2,0,0.3
	c0,0.1,0.1,0.2,0.1,0.3s-0.1,0.2-0.1,0.3c-0.1,0-0.1,0.1-0.2,0.1c-0.1,0-0.2,0-0.2,0.1s0,0.1,0.1,0.1c0.1,0,0.2,0,0.2,0.1
	c0,0.1-0.1,0.3-0.1,0.3s-0.3,0.2-0.4,0.3c-0.1,0-0.2,0-0.2,0c0,0-0.1-0.1-0.2-0.1c-0.1,0-0.1,0-0.1-0.1c-0.1,0-0.3-0.1-0.2,0
	c0.2,0.1,0.2,0.2,0.3,0.2c0.1,0.1,0.4,0.1,0.3,0.2c-0.1,0.1-0.2,0.2-0.2,0.3c0,0.1,0.1,0.5,0.1,0.6c0,0.1-0.2,0.2-0.3,0.2
	c-0.1-0.1-0.2-0.1-0.2-0.2s-0.1-0.2-0.1-0.2c-0.1,0-0.3,0.1-0.3,0.1c-0.1,0-0.2,0-0.2,0.1c0,0-0.2,0.2-0.2,0.2c0,0-0.2,0-0.1,0.1
	c0.1,0.1,0.2,0.2,0.3,0.4c0.1,0.1,0,0.3,0,0.3c0,0.1,0.1,0.1,0.2,0.2c0.1,0,0.1,0.2,0.1,0.2s0,0.2-0.1,0.3c0,0.1-0.1,0.2-0.1,0.2
	s0.1,0,0.2,0c0.1,0,0.1,0.2,0.1,0.3s0,0.2-0.1,0.3c0,0-0.1,0.2-0.1,0.2c0,0,0,0,0,0c0,0.1-0.1,0.1-0.1,0.1c-0.1,0-0.1,0-0.2,0
	c-0.1,0-0.1,0-0.2,0c-0.1,0-0.1,0-0.1-0.1c0-0.1,0-0.2,0-0.2c0-0.1,0-0.1-0.1-0.1c-0.1,0-0.1-0.1-0.2-0.1c0-0.1-0.3,0.2-0.4,0.3
	c-0.1,0.1,0-0.1,0-0.2c0-0.1-0.1,0-0.2,0.1c-0.1,0,0-0.2-0.1-0.3c0-0.1-0.2,0.1-0.3,0.2c0,0-0.1,0.2-0.2,0.3c0,0,0,0,0,0
	c-0.1,0.1-0.1,0.1-0.2,0.2c-0.1,0.1-0.1,0.1-0.2,0.1c-0.1,0-0.2-0.1-0.2-0.1c-0.1,0-0.1,0-0.2,0c0,0-0.2,0-0.2,0
	c0,0-0.1-0.1-0.2-0.2c0,0,0,0,0,0c0-0.1-0.2-0.1-0.3-0.1c-0.1,0-0.1,0.1-0.4,0.1s-0.2-0.1-0.3-0.2c-0.1-0.1-0.2,0-0.2,0.1
	c-0.1,0-0.2,0-0.3-0.1c0,0,0-0.1,0-0.1c0,0,0-0.1,0.1-0.2c0-0.1-0.2-0.2-0.2-0.2c-0.1-0.1-0.2,0.1-0.2,0.1c-0.1,0.1-0.2-0.1-0.2-0.2
	c-0.1-0.1,0.1-0.2,0.2-0.3c0-0.1-0.3-0.3-0.4-0.3c-0.1-0.1-0.2,0.1-0.3,0c-0.1,0,0.1-0.1,0.2-0.2c0.1,0-0.2-0.3-0.2-0.3
	c-0.1,0-0.1-0.2-0.2-0.3c0-0.1-0.1-0.1-0.2,0c-0.1,0-0.2,0.3-0.2,0.3c-0.1,0.1-0.2,0.1-0.3,0C7,20.3,7,20.2,7,20.1s0-0.1-0.1-0.2
	c0,0,0,0,0,0h0c0-0.1,0.1-0.1,0.2-0.2c0.1-0.1-0.2-0.1-0.3-0.1s0.1-0.1,0.1-0.2c0.1,0,0.2,0,0.2,0c0.1,0,0.2,0,0.3,0
	c0.1,0-0.1-0.1-0.2-0.1c-0.1,0-0.1,0-0.2,0c-0.1,0,0-0.1,0.1-0.1c0.1-0.1,0-0.1-0.1-0.1c0,0-0.3,0.1-0.3,0.2c-0.1,0-0.1-0.1-0.2-0.1
	C6.5,19,6.6,19,6.7,19c0.1,0,0.2,0,0.2,0c0.1,0,0-0.2-0.2-0.2c-0.1-0.1,0,0-0.1,0s-0.2,0.1-0.3,0.1c-0.2,0-0.2-0.2-0.2-0.2
	c0-0.1,0.1-0.2,0.2-0.2c0.1,0,0.1,0,0.1-0.1c0.1,0,0.1,0,0.2-0.1c0.1-0.1,0-0.2-0.1-0.2c-0.1,0-0.2,0-0.3,0S6.3,18.1,6.2,18
	c-0.1-0.1,0-0.1,0.1-0.2c0,0,0.1,0,0.1,0c0.1,0,0.3,0,0.4,0c0.1,0,0.1-0.1,0-0.1c0-0.1-0.1-0.2-0.1-0.3c0-0.1,0-0.1,0-0.2
	c0-0.1-0.1-0.2-0.2-0.3c-0.1-0.1-0.1-0.1,0-0.2c0,0,0,0,0,0c0-0.1-0.2-0.2-0.2-0.2c0,0,0,0,0,0c0-0.1,0.2-0.2,0.2-0.3
	c0-0.1-0.1-0.4-0.1-0.4c-0.1-0.1-0.1,0.1-0.1,0.2c0,0.1-0.1,0.1-0.2,0.1c-0.1,0,0,0.1,0,0.1c0.1,0,0,0.1-0.1,0.1
	c0,0-0.2,0.1-0.3,0.1c0,0,0,0,0,0.1c0,0.1,0,0.2-0.1,0.2c0,0.1-0.1,0.1-0.1,0.1H5.5c-0.1,0-0.1-0.1-0.2-0.2c-0.1-0.1,0,0.2,0,0.3
	c0,0.1-0.1,0.1-0.1,0.1c0,0-0.3,0-0.3,0.1c0,0,0,0,0,0c-0.1,0-0.1-0.1-0.2-0.1c0-0.1,0.1-0.1,0.2,0c0.1,0-0.1-0.2-0.1-0.2
	c-0.1,0,0-0.3,0-0.4c0-0.1-0.1-0.3-0.1-0.4c0-0.1,0.1-0.3,0.1-0.4c0-0.1-0.1-0.3-0.2-0.4c0-0.1,0-0.2,0.1-0.3c0-0.1,0-0.2,0-0.3
	c0,0-0.1,0-0.2,0c0,0-0.2,0-0.2,0c0,0,0,0-0.1,0c0,0,0,0-0.1-0.1c0,0,0,0,0,0c0,0,0.1,0,0.2,0c0,0,0.2,0,0.3,0c0.1,0,0.1,0,0.1,0
	c0,0,0-0.1,0-0.1c0-0.1-0.2-0.2-0.2-0.2c0,0-0.1-0.1-0.2-0.1c0,0,0,0,0,0c0,0,0-0.1,0-0.1c0,0,0,0,0,0c0.1,0,0.2,0,0.2,0
	c0.1,0,0.1-0.1,0.1-0.1c0-0.1,0.1-0.2,0-0.2c0-0.1,0-0.1,0-0.2c0,0,0,0,0,0C4.9,13,5,12.9,5,12.9c0.1,0,0.1-0.3,0.2-0.3
	c0,0,0.1-0.1,0.2-0.1c0,0,0.1-0.2,0.1-0.2c0-0.1-0.3-0.1-0.3-0.1C5,12,5,11.9,4.9,11.9c-0.1-0.1-0.1-0.1-0.1-0.2
	c0-0.1-0.4-0.1-0.5-0.1c-0.1,0,0-0.1,0.1-0.1c0.1,0,0.1-0.1,0.1-0.2c0,0,0.1,0,0.2,0v0c0.1,0,0.1,0,0.2,0c0.2,0,0.2,0.1,0.3,0.1
	c0.1,0,0.1-0.1,0.2-0.1c0-0.1,0.2-0.1,0.2-0.1c0-0.1-0.2-0.1-0.3-0.1C5.2,11.1,5,11,5,11c0,0,0,0,0,0c0,0,0-0.1,0-0.2
	c0-0.1,0.1,0,0.2,0c0.1,0,0.1,0.1,0.3,0.1c0.2,0-0.1-0.1-0.2-0.2c0,0,0,0,0,0c0.1,0,0.2,0,0.2,0.1c0.1,0,0-0.1,0-0.1
	c0,0,0-0.1,0-0.2c0-0.1,0-0.2,0-0.3c0-0.1,0-0.1,0-0.2c0-0.1,0-0.2,0-0.3c0-0.1-0.1-0.2-0.1-0.3C5.4,9.1,5,9,5,8.9
	c-0.1,0-0.2,0-0.3,0c-0.1,0-0.1-0.1-0.2-0.1C4.3,8.8,4.1,8.7,4,8.7c0,0-0.2,0-0.3,0c-0.1,0-0.2-0.1-0.3-0.1c0,0-0.1,0-0.1,0
	c-0.1,0-0.3,0-0.3-0.1C2.9,8.5,3,8.4,3.1,8.3c0-0.1,0-0.1,0-0.1c0,0-0.2,0-0.3,0c-0.1,0-0.2-0.3-0.3-0.3c-0.1,0-0.1,0-0.1,0
	c-0.1,0-0.1-0.1-0.2-0.1C2.1,7.8,2.1,7.9,2,7.9C2,8,1.9,7.8,1.8,7.8C1.7,7.8,1.9,8,2,8.1c0.1,0.1,0,0.1,0,0.1c0,0.1-0.2,0-0.2-0.1
	C1.6,8.1,1.5,8.1,1.4,8c0-0.1-0.2-0.3-0.3-0.3c-0.1,0,0-0.1,0.1-0.1c0.1,0,0.1-0.1,0.1-0.1c0.1,0,0.2,0,0.2,0c0.1,0-0.1-0.1-0.2-0.2
	c-0.1-0.1-0.1,0-0.2-0.1C1.1,7,1.1,6.8,1,6.7c0-0.1-0.2-0.2-0.2-0.2c0-0.1,0.1-0.1,0.1-0.2c0-0.1-0.1-0.1-0.2-0.2
	c-0.1,0-0.2-0.1-0.3-0.1H0.3C0.3,6.1,0.2,6,0.1,6S0,5.7,0,5.6c0-0.1,0-0.1,0.1-0.1s0.3,0.1,0.4,0.1c0.1,0,0.1-0.1,0-0.1
	c-0.1,0-0.2-0.2-0.3-0.3s0-0.1,0-0.1c0,0,0.2,0.1,0.3,0.1c0.1,0.1,0.1,0.1,0.2,0.1c0.1,0,0.1-0.1,0.1-0.2c0-0.1-0.1-0.2-0.2-0.3
	C0.4,4.9,0.3,4.9,0.3,4.8c0-0.1-0.1-0.3-0.1-0.3c0-0.1,0.1,0,0.2,0c0.1,0,0-0.2-0.1-0.2C0.4,4.2,0.3,4.1,0.3,4.1c0-0.1,0-0.2,0-0.3
	c0-0.1,0-0.2,0.1-0.3c0-0.1,0-0.1,0.1-0.1c0.1,0,0.2,0.1,0.2,0.2c0,0,0,0,0,0.1c0,0,0.1,0.2,0.2,0.2c0,0,0.2-0.1,0.2,0
	c0,0.1,0,0.1,0.1,0.1c0,0,0.2,0,0.2,0s0.1,0.1,0,0.1c0,0-0.2,0.3-0.3,0.2C1,4.3,1,4.2,0.9,4.1c-0.1,0-0.2,0-0.1,0
	C0.8,4.2,1,4.4,1,4.4c0,0.1,0,0.2,0,0.2c0,0.1,0,0.1-0.1,0.2c-0.1,0-0.1,0.1-0.1,0.1c0,0,0.1,0.1,0.1,0.2C1,5.1,1,5.2,1,5.2
	c0,0.1,0,0.2,0,0.2c0,0,0.2,0.1,0.2,0.2c0,0.1,0.1,0.2,0.2,0.2c0,0,0.1-0.1,0.1-0.1c0,0,0.1,0.1,0.1,0.1C1.7,6,1.7,6,1.7,6.1
	C1.7,6.1,1.7,6.1,1.7,6.1 M15.3,17.1l-0.1-0.2c0-0.1-0.1-0.1-0.2-0.1c0,0.1-0.1,0.2-0.1,0.3c0,0-0.1,0.2-0.2,0.2
	c0,0-0.2,0.1-0.1,0.2c0.1,0.1,0.1,0.1,0.2,0.1s0.1-0.1,0.2-0.1c0.1,0,0.2,0,0.2,0c0-0.1,0-0.1,0-0.2C15.2,17.3,15.3,17.1,15.3,17.1"
	/>
</svg>
